<?xml version="1.0" encoding="utf-8"?>
<!-- Generator: Adobe Illustrator 19.0.0, SVG Export Plug-In . SVG Version: 6.00 Build 0)  -->
<svg version="1.1" id="Layer_1" xmlns="http://www.w3.org/2000/svg" xmlns:xlink="http://www.w3.org/1999/xlink" x="0px" y="0px"
	 viewBox="0 0 141.2 170.9" style="enable-background:new 0 0 141.2 170.9;" xml:space="preserve">
<style type="text/css">
	.st0{fill:none;stroke:#EFA492;stroke-miterlimit:10;}
	.st1{opacity:0.4;}
	.st2{clip-path:url(#XMLID_69_);fill:#C9C9C3;}
	.st3{clip-path:url(#XMLID_69_);fill:none;stroke:#C9C9C3;stroke-miterlimit:10;}
	.st4{fill:#C3A3CD;}
	.st5{fill:#FFFFFF;}
</style>
<path id="XMLID_68_" class="st0" d="M-27.3,158.2c-0.3,0-0.6,0.1-0.7,0.5"/>
<g id="XMLID_63_" class="st1">
	<g id="XMLID_64_">
		<defs>
			<rect id="XMLID_65_" x="0" y="158.3" width="142.3" height="11.5"/>
		</defs>
		<clipPath id="XMLID_69_">
			<use xlink:href="#XMLID_65_"  style="overflow:visible;"/>
		</clipPath>
		<rect id="XMLID_67_" x="0.7" y="158.8" class="st2" width="141" height="10.5"/>
		<rect id="XMLID_66_" x="0.7" y="158.8" class="st3" width="141" height="10.5"/>
	</g>
</g>
<rect id="XMLID_23_" x="0.7" y="158.5" class="st4" width="76.4" height="10.5"/>
<circle id="XMLID_22_" class="st4" cx="70.2" cy="71" r="70.6"/>
<g id="XMLID_15_">
	<path id="XMLID_19_" class="st5" d="M74.7,94.5c-0.2,0-0.3,0-0.4,0c-2.9,0-5.8,0-8.7,0c-0.5,0-0.6-0.3-0.7-0.6
		c-1.3-4.1-2.6-8.1-3.8-12.2c-0.2-0.5-0.4-0.7-1-0.7c-4.6,0.1-9.1,0.1-13.7,0.1c-0.5,0-0.7,0.2-0.8,0.6c-1.2,4-2.5,8-3.7,12
		c-0.2,0.5-0.4,0.7-1,0.7c-2.6,0-5.1,0-7.7,0c-0.2,0-0.4,0-0.7,0c0.1-0.3,0.1-0.6,0.2-0.8c4-12.4,8-24.8,11.9-37.2
		c1-3.1,2-6.1,2.9-9.2c0.1-0.5,0.4-0.6,0.8-0.6c3.3,0,6.7,0,10-0.1c0.4,0,0.6,0.2,0.8,0.6c3.9,12,7.8,23.9,11.7,35.9
		c1.2,3.6,2.3,7.1,3.5,10.7C74.6,94.1,74.7,94.3,74.7,94.5 M59.4,74.3c-2-6.8-4-13.5-6.1-20.3c-2,6.8-3.9,13.5-5.9,20.3H59.4z"/>
	<path id="XMLID_16_" class="st5" d="M104.6,87.3c0.4,1.9,0.9,3.7,1.3,5.5c0.1,0.5-0.2,0.6-0.5,0.7c-3.2,0.9-6.4,1.6-9.8,1.8
		c-2.5,0.2-5,0.1-7.4-0.5c-4.8-1.1-8.2-4-10.2-8.5c-3.4-7.6-2.6-14.8,2.5-21.3c2.7-3.5,6.6-5,11-5.3c2.3-0.1,4.5,0.2,6.7,0.8
		c4.1,1.2,6.7,3.9,8.1,7.8c1.2,3.6,1.5,7.3,1.3,11c0,0.5-0.4,0.5-0.7,0.5c-4.4,0-8.7,0-13.1,0c-2.9,0-5.8,0-8.7,0
		c-0.6,0-0.7,0.2-0.7,0.8c0.3,3.9,3.2,7,7.3,7.8c3.1,0.6,6.2,0.3,9.2-0.3C102.2,87.9,103.4,87.5,104.6,87.3 M84.4,73.8
		c0.4,0,0.6,0,0.8,0c2.5,0,5.1,0,7.6,0c2.1,0,4.1,0,6.2,0c0.6,0,0.8-0.2,0.7-0.8c-0.1-0.5-0.2-1.1-0.3-1.6c-1.1-4.7-5.3-7.1-9.7-5.4
		c-2.5,0.9-3.8,2.9-4.6,5.3C84.8,72,84.6,72.9,84.4,73.8"/>
</g>
</svg>
