<?xml version="1.0" encoding="utf-8"?>
<!-- Generator: Adobe Illustrator 23.0.1, SVG Export Plug-In . SVG Version: 6.00 Build 0)  -->
<svg version="1.1" id="Layer_1" xmlns="http://www.w3.org/2000/svg" xmlns:xlink="http://www.w3.org/1999/xlink" x="0px" y="0px"
	 viewBox="0 0 141.2 141.2" style="enable-background:new 0 0 141.2 141.2;" xml:space="preserve">
<style type="text/css">
	.st0{fill:#F8991E;}
	.st1{fill:#FFFFFF;}
</style>
<g id="XMLID_14_">
	<g id="XMLID_15_">
		<circle id="XMLID_22_" class="st0" cx="70.6" cy="70.6" r="70.6"/>
		<g id="XMLID_16_">
			<path id="XMLID_19_" class="st1" d="M85.9,99.2c-3.5,0-6.8,0.1-10.2-0.1c-0.5,0-1.2-1.2-1.5-2C73,93.7,72,90.3,71,86.8
				c-0.5-1.7-1.2-2.4-3.1-2.3c-3.7,0.1-7.3,0.2-11,0c-2-0.1-2.7,0.8-3.2,2.5c-0.8,3.4-1.9,6.7-2.7,10.1c-0.4,1.6-1.2,2.2-2.9,2.2
				c-2.6-0.1-5.2,0-8.3,0c1.2-4.2,2.2-7.9,3.3-11.6c3.6-12.5,7.2-25,10.8-37.5c0.5-1.7,0.8-3.6,0.8-5.4c0.1-1.7,0.5-2.5,2.3-2.5
				c3.4,0.1,6.8-0.1,10.2,0.1c0.9,0.1,2.3,1,2.5,1.7c5.5,17.9,10.7,35.8,16,53.6C85.8,98,85.8,98.4,85.9,99.2 M68.1,74.9
				c-1.9-7.2-3.7-14.2-5.8-21.9c-1.9,7.7-3.6,14.6-5.4,21.9H68.1z"/>
			<path id="XMLID_18_" class="st1" d="M102.8,77.6c0,6.2-0.1,12.5,0,18.7c0,2-0.7,2.8-2.7,2.7c-2-0.1-4,0-6.1,0
				c-1.6,0-2.3-0.6-2.3-2.3c0-12.8,0-25.7-0.1-38.5c0-1.8,0.8-2.3,2.5-2.4c8.8-0.3,8.8-0.3,8.7,8.5
				C102.9,68.8,102.9,73.2,102.8,77.6L102.8,77.6z"/>
			<path id="XMLID_17_" class="st1" d="M97.4,50.3c-3.5,0.1-5.9-2.1-6-5.5s2.3-5.8,5.9-5.9c3.5,0,5.9,2.1,6,5.5
				C103.3,47.9,101,50.2,97.4,50.3"/>
		</g>
	</g>
</g>
</svg>
