<?xml version="1.0" encoding="utf-8"?>
<!-- Generator: Adobe Illustrator 19.0.0, SVG Export Plug-In . SVG Version: 6.00 Build 0)  -->
<svg version="1.1" id="Layer_1" xmlns="http://www.w3.org/2000/svg" xmlns:xlink="http://www.w3.org/1999/xlink" x="0px" y="0px"
	 viewBox="0 0 104.5 58.5" style="enable-background:new 0 0 104.5 58.5;" xml:space="preserve">
<style type="text/css">
	.st0{fill:#F2F3F2;}
	.st1{fill:url(#XMLID_60_);}
	.st2{fill:#5E5E5E;}
	.st3{fill:#A09F9F;}
	.st4{fill:#C2C1C1;}
	.st5{fill:url(#XMLID_61_);}
	.st6{fill:url(#XMLID_62_);}
	.st7{fill:#FFFFFF;}
	.st8{fill:url(#XMLID_63_);}
	.st9{fill:#231F20;}
	.st10{fill:url(#XMLID_64_);}
	.st11{fill:#A5A5A5;}
	.st12{fill:url(#XMLID_65_);}
	.st13{fill:url(#XMLID_66_);}
	.st14{fill:url(#XMLID_67_);}
</style>
<g id="XMLID_2_">
	<path id="XMLID_20_" class="st0" d="M99.2,1.8l0.5,51.6c0,0.9-0.8,1.7-1.9,1.7L6.7,55c-1,0-1.9-0.8-1.9-1.7L4.3,1.7
		C4.3,0.8,5.1,0,6.2,0l91.1,0.1C98.4,0.1,99.2,0.9,99.2,1.8"/>
	
		<linearGradient id="XMLID_60_" gradientUnits="userSpaceOnUse" x1="-956.8483" y1="630.4852" x2="-955.8483" y2="630.4852" gradientTransform="matrix(95.7462 -0.3533 -0.3533 -95.7462 91841.4844 60056.2031)">
		<stop  offset="0" style="stop-color:#CECFD1"/>
		<stop  offset="1" style="stop-color:#8D8F92"/>
	</linearGradient>
	<path id="XMLID_19_" class="st1" d="M99.2,1.8L99.2,1.8l0.5,51.6c0,0,0,0,0,0c0,0.9-0.8,1.7-1.9,1.7L6.7,55c-1,0-1.9-0.8-1.9-1.7
		L4.3,1.7c0,0,0,0,0,0C4.3,0.7,5.1,0,6.2,0c0,0,0,0,0,0l91.1,0.1C98.4,0.1,99.2,0.9,99.2,1.8L99.2,1.8L99.2,1.8
		c0-0.9-0.9-1.7-1.9-1.7L6.2,0c0,0,0,0,0,0c-1,0-1.9,0.7-1.9,1.7c0,0,0,0,0,0l0.5,51.6c0,0.9,0.9,1.7,1.9,1.7l91.1,0.1
		c1,0,1.9-0.7,1.9-1.7c0,0,0,0,0,0L99.2,1.8L99.2,1.8z"/>
	<polygon id="XMLID_18_" class="st2" points="95.9,4.5 96.4,50.9 8,50.8 7.6,4.4 	"/>
	<path id="XMLID_17_" class="st3" d="M101.8,58.5L2.8,58.4c-0.6,0-1.1-0.4-1.1-1l0,0c0-0.5,0.5-1,1.1-1l98.9,0.1
		c0.6,0,1.1,0.4,1.1,1l0,0C102.8,58.1,102.4,58.5,101.8,58.5"/>
	<path id="XMLID_16_" class="st4" d="M11.4,55.1l0-1c0-0.3,0.2-0.5,0.5-0.5l3.9,0c0.3,0,0.5,0.2,0.5,0.5l0,1c0,0.3-0.2,0.5-0.5,0.5
		l-3.9,0C11.7,55.5,11.4,55.3,11.4,55.1"/>
	
		<linearGradient id="XMLID_61_" gradientUnits="userSpaceOnUse" x1="-868.654" y1="713.9846" x2="-867.654" y2="713.9846" gradientTransform="matrix(2.6304 3.4639 3.4639 -2.6304 -175.75 4939.8311)">
		<stop  offset="0" style="stop-color:#CECFD1"/>
		<stop  offset="1" style="stop-color:#8D8F92"/>
	</linearGradient>
	<path id="XMLID_15_" class="st5" d="M11.4,55.1L11.4,55.1l0-1l0,0c0-0.3,0.2-0.5,0.5-0.5l3.9,0c0.3,0,0.5,0.2,0.5,0.5l0,1l0,0
		c0,0.3-0.2,0.5-0.5,0.5l-3.9,0C11.7,55.5,11.4,55.3,11.4,55.1L11.4,55.1L11.4,55.1c0,0.3,0.2,0.5,0.5,0.5l3.9,0
		c0.3,0,0.5-0.2,0.5-0.5l0,0l0-1c0-0.3-0.2-0.5-0.5-0.5l-3.9,0c-0.3,0-0.5,0.2-0.5,0.5l0,0L11.4,55.1L11.4,55.1z"/>
	<path id="XMLID_14_" class="st4" d="M88.1,55.2l0-1c0-0.3,0.2-0.5,0.5-0.5l3.9,0c0.3,0,0.5,0.2,0.5,0.5l0,1c0,0.3-0.2,0.5-0.5,0.5
		l-3.9,0C88.4,55.6,88.1,55.4,88.1,55.2"/>
	
		<linearGradient id="XMLID_62_" gradientUnits="userSpaceOnUse" x1="-868.6545" y1="713.9841" x2="-867.6545" y2="713.9841" gradientTransform="matrix(2.6304 3.464 3.464 -2.6304 -99.0444 4939.9502)">
		<stop  offset="0" style="stop-color:#CECFD1"/>
		<stop  offset="1" style="stop-color:#8D8F92"/>
	</linearGradient>
	<path id="XMLID_13_" class="st6" d="M88.1,55.2L88.1,55.2l0-1l0,0c0-0.3,0.2-0.5,0.5-0.5l3.9,0c0.3,0,0.5,0.2,0.5,0.5l0,1
		c0,0,0,0,0,0c0,0.3-0.2,0.5-0.5,0.5l-3.9,0C88.4,55.6,88.1,55.4,88.1,55.2L88.1,55.2L88.1,55.2c0,0.3,0.2,0.5,0.5,0.5l3.9,0
		c0.3,0,0.5-0.2,0.5-0.5c0,0,0,0,0,0l0-1c0-0.3-0.2-0.5-0.5-0.5l-3.9,0c-0.3,0-0.5,0.2-0.5,0.5l0,0L88.1,55.2L88.1,55.2z"/>
	<path id="XMLID_12_" class="st7" d="M103,57.6L1.6,57.5c-0.8,0-1.5-0.6-1.5-1.4L0,55l104.5,0.1l0,1.1C104.5,57,103.8,57.6,103,57.6
		"/>
	
		<linearGradient id="XMLID_63_" gradientUnits="userSpaceOnUse" x1="-957.3321" y1="630.5854" x2="-956.3321" y2="630.5854" gradientTransform="matrix(104.889 -0.3871 -0.3871 -104.889 100657.5 65827.375)">
		<stop  offset="0" style="stop-color:#B9BBBD"/>
		<stop  offset="1" style="stop-color:#6E6F72"/>
	</linearGradient>
	<path id="XMLID_11_" class="st8" d="M103,57.6L103,57.6L1.6,57.5c-0.8,0-1.5-0.6-1.5-1.4L0,55l104.5,0.1l0,1.1v0
		C104.5,57,103.8,57.6,103,57.6L103,57.6L103,57.6c0.8,0,1.5-0.6,1.5-1.3v0l0-1.1L0,55l0,1.1c0,0.7,0.7,1.4,1.5,1.4L103,57.6
		L103,57.6z"/>
	<path id="XMLID_10_" class="st9" d="M50.8,1.3c0.4,0,0.8,0.3,0.8,0.7c0,0.4-0.3,0.7-0.8,0.7c-0.4,0-0.8-0.3-0.8-0.7
		C50,1.6,50.3,1.3,50.8,1.3"/>
	
		<linearGradient id="XMLID_64_" gradientUnits="userSpaceOnUse" x1="-1025.9799" y1="324.6779" x2="-1024.9799" y2="324.6779" gradientTransform="matrix(-6.389060e-03 -1.7313 -1.7313 6.389060e-03 606.3306 -1775.5389)">
		<stop  offset="0" style="stop-color:#CECFD1"/>
		<stop  offset="1" style="stop-color:#8D8F92"/>
	</linearGradient>
	<path id="XMLID_9_" class="st10" d="M50.8,1.3L50.8,1.3c0.4,0,0.8,0.3,0.8,0.7v0c0,0.4-0.3,0.7-0.8,0.7c-0.4,0-0.8-0.3-0.8-0.7
		c0,0,0,0,0,0C50,1.6,50.3,1.3,50.8,1.3L50.8,1.3L50.8,1.3c-0.4,0-0.8,0.3-0.8,0.7l0,0c0,0.4,0.4,0.7,0.8,0.7c0.4,0,0.8-0.3,0.8-0.7
		v0C51.5,1.6,51.2,1.3,50.8,1.3L50.8,1.3z"/>
	<path id="XMLID_8_" class="st11" d="M31.4,55.8c0.3,0,0.5,0.2,0.5,0.5c0,0.3-0.2,0.5-0.5,0.5c-0.3,0-0.5-0.2-0.5-0.5
		C30.9,56,31.1,55.8,31.4,55.8"/>
	
		<linearGradient id="XMLID_65_" gradientUnits="userSpaceOnUse" x1="-1053.7749" y1="190.4889" x2="-1052.7749" y2="190.4889" gradientTransform="matrix(-4.445620e-03 -1.2047 -1.2047 4.445620e-03 256.1921 -1213.4333)">
		<stop  offset="0" style="stop-color:#CECFD1"/>
		<stop  offset="1" style="stop-color:#8D8F92"/>
	</linearGradient>
	<path id="XMLID_7_" class="st12" d="M31.4,55.8L31.4,55.8c0.3,0,0.5,0.2,0.5,0.5v0c0,0.3-0.2,0.5-0.5,0.5c-0.3,0-0.5-0.2-0.5-0.5
		c0,0,0,0,0,0C30.9,56,31.1,55.8,31.4,55.8L31.4,55.8L31.4,55.8c-0.3,0-0.5,0.2-0.5,0.5l0,0c0,0.3,0.2,0.5,0.5,0.5
		c0.3,0,0.5-0.2,0.5-0.5v0C31.9,56,31.7,55.8,31.4,55.8L31.4,55.8z"/>
	<path id="XMLID_6_" class="st11" d="M34.2,55.8c0.3,0,0.5,0.2,0.5,0.5c0,0.3-0.2,0.5-0.5,0.5c-0.3,0-0.5-0.2-0.5-0.5
		C33.6,56,33.9,55.8,34.2,55.8"/>
	
		<linearGradient id="XMLID_66_" gradientUnits="userSpaceOnUse" x1="-1053.7749" y1="190.4889" x2="-1052.7749" y2="190.4889" gradientTransform="matrix(-4.445620e-03 -1.2047 -1.2047 4.445620e-03 258.9811 -1213.4304)">
		<stop  offset="0" style="stop-color:#CECFD1"/>
		<stop  offset="1" style="stop-color:#8D8F92"/>
	</linearGradient>
	<path id="XMLID_5_" class="st13" d="M34.2,55.8L34.2,55.8c0.3,0,0.5,0.2,0.5,0.5v0c0,0.3-0.2,0.5-0.5,0.5c-0.3,0-0.5-0.2-0.5-0.5
		c0,0,0,0,0,0C33.7,56,33.9,55.8,34.2,55.8L34.2,55.8L34.2,55.8c-0.3,0-0.5,0.2-0.5,0.5l0,0c0,0.3,0.2,0.5,0.5,0.5
		c0.3,0,0.5-0.2,0.5-0.5v0C34.7,56,34.5,55.8,34.2,55.8L34.2,55.8z"/>
	<path id="XMLID_4_" class="st11" d="M37,55.8c0.3,0,0.5,0.2,0.5,0.5c0,0.3-0.2,0.5-0.5,0.5c-0.3,0-0.5-0.2-0.5-0.5
		C36.4,56,36.7,55.8,37,55.8"/>
	
		<linearGradient id="XMLID_67_" gradientUnits="userSpaceOnUse" x1="-1053.7749" y1="190.4888" x2="-1052.7749" y2="190.4888" gradientTransform="matrix(-4.445620e-03 -1.2047 -1.2047 4.445620e-03 261.7701 -1213.4274)">
		<stop  offset="0" style="stop-color:#CECFD1"/>
		<stop  offset="1" style="stop-color:#8D8F92"/>
	</linearGradient>
	<path id="XMLID_3_" class="st14" d="M37,55.8L37,55.8c0.3,0,0.5,0.2,0.5,0.5v0c0,0.3-0.2,0.5-0.5,0.5c-0.3,0-0.5-0.2-0.5-0.5l0,0
		C36.4,56,36.7,55.8,37,55.8L37,55.8L37,55.8c-0.3,0-0.5,0.2-0.5,0.5l0,0c0,0.3,0.2,0.5,0.5,0.5c0.3,0,0.5-0.2,0.5-0.5v0
		C37.5,56,37.3,55.8,37,55.8L37,55.8z"/>
</g>
</svg>
