<?xml version="1.0" encoding="utf-8"?>
<!-- Generator: Adobe Illustrator 23.0.1, SVG Export Plug-In . SVG Version: 6.00 Build 0)  -->
<svg version="1.1" id="Layer_1" xmlns="http://www.w3.org/2000/svg" xmlns:xlink="http://www.w3.org/1999/xlink" x="0px" y="0px"
	 viewBox="0 0 141.2 145" style="enable-background:new 0 0 141.2 145;" xml:space="preserve">
<style type="text/css">
	.st0{fill:none;stroke:#EFA492;stroke-miterlimit:10;}
	.st1{fill:#FFFFFF;}
	.st2{fill:#008FD5;}
</style>
<path id="XMLID_68_" class="st0" d="M-27.3,158.2c-0.3,0-0.6,0.1-0.7,0.5"/>
<g id="XMLID_15_">
	<circle id="XMLID_63_" class="st1" cx="70.6" cy="70.6" r="70.6"/>
	<g id="XMLID_16_">
		<path id="XMLID_21_" class="st2" d="M71.6,39.3c11.3,0,22.6,0,33.9,0c2.8,0,3,0.1,2.7,2.9c-0.7,9-1.6,17.9-2.4,26.9
			c-0.8,9.1-1.7,18.2-2.5,27.3c-0.5,5.4-0.9,10.7-1.5,16.1c-0.1,0.8-1,1.9-1.7,2.1c-9.2,2.6-18.3,5.2-27.5,7.6
			c-0.8,0.2-1.8,0.1-2.6-0.1c-8.8-2.4-17.6-4.9-26.5-7.3c-1.7-0.5-2.2-1.4-2.4-2.9c-1.3-15.8-2.7-31.6-4.1-47.4
			c-0.6-7.3-1.3-14.6-2.1-21.8c-0.3-3.3-0.2-3.4,3-3.4C49.3,39.3,60.4,39.3,71.6,39.3 M71.6,54.8L71.6,54.8
			c-5.9,0.1-11.8,0.1-17.7,0.1c-5,0-5,0-4.6,4.8c0,0.1,0,0.3,0,0.4c0.2,3.5,0.2,3.5,3.7,3.6c9.8,0.1,19.6,0.3,29.4,0.4
			c1.5,0,2.2,0.4,1.9,2.1c-0.3,1.5-0.5,3.1-0.5,4.6c0,1.8-0.8,2.2-2.4,2.3c-8.5,0.1-17,0.3-25.5,0.4c-5.9,0.1-5.8,0-5.2,6
			c0.3,2.2,1,2.9,3.3,2.9c8.9,0,17.7,0.3,26.6,0.4c1.5,0,2.1,0.4,1.9,2.1c-0.3,2.4-0.3,4.9-0.7,7.3c-0.1,0.8-0.8,2-1.4,2.2
			c-4.6,1.3-9,3.4-14.1,1.5c-5-1.8-5.1-1.4-5.7-6.7c0-0.1,0-0.1,0-0.2c-0.1-1.3-0.7-2-2.1-2c-1.9,0.1-3.8,0-5.8,0
			c-1.3,0-1.7,0.6-1.6,1.8c0.4,3.5,0.7,7,1,10.6c0.1,1.6,0.8,2.3,2.3,2.7c5.4,1.4,10.8,3,16.2,4.4c0.8,0.2,1.8,0.2,2.6,0
			c5.1-1.4,10.2-2.8,15.4-4.2c1.4-0.4,2-1.1,2.1-2.4c0.2-2.1,0.3-4.1,0.5-6.2c0.7-7.9,1.4-15.7,2.1-23.6c0.4-4.3,0.7-8.5,1.1-12.8
			c0.2-1.7-0.6-2.4-2.3-2.4C85.4,54.8,78.5,54.8,71.6,54.8"/>
		<path id="XMLID_20_" class="st2" d="M84.5,27.7c-1.1-0.9-2.3-1.6-3.3-2.6c-0.6-0.6-1.2-1.4-1.3-2.1c-0.6-3.8-0.2-4.2,3.6-4.2
			c2.7,0,5.3,0.1,8,0c2.1-0.1,2,1.3,2,2.6c-0.1,1.3,0.4,3-1.9,2.9c-0.9,0-1.7,0-2.8,0.4c1.1,0.9,2.3,1.7,3.3,2.7
			c0.6,0.5,1.1,1.2,1.3,1.9c0.7,3.2,0.1,3.9-3.2,3.9c-2.8,0-5.6-0.1-8.4,0c-1.7,0.1-1.9-0.9-1.9-2.2s-0.2-2.8,1.9-2.8
			c0.9,0,1.8,0,2.6,0C84.4,28.1,84.5,27.9,84.5,27.7"/>
		<path id="XMLID_19_" class="st2" d="M73.7,24.8c1.1,0.9,2.3,1.8,3.4,2.7c0.5,0.5,1,1.1,1.2,1.8c0.7,3.2,0.1,3.9-3.2,3.9
			c-2.8,0-5.6-0.1-8.4,0c-1.7,0.1-2-0.9-1.9-2.2s-0.3-2.8,1.8-2.8c0.9,0,1.8,0,3.3,0c-1.6-1.2-2.6-2.1-3.6-2.9
			c-1.4-1.1-2.2-4.4-1.3-5.8c0.2-0.4,0.9-0.7,1.4-0.7c3.4-0.1,6.8,0,10.2,0c2,0,1.8,1.4,1.7,2.6c0,1.2,0.5,2.9-1.7,2.9
			c-0.9,0-1.9,0-2.8,0C73.9,24.5,73.8,24.7,73.7,24.8"/>
		<path id="XMLID_18_" class="st2" d="M50,26.1c0-1.7,0.1-3.4,0-5.1c-0.1-1.6,0.4-2.3,2.1-2.2c3.1,0.1,6.2,0.1,9.3,0
			c2-0.1,1.9,1.2,1.8,2.5c-0.1,1.3,0.6,3-1.7,3c-1.1,0-2.2,0.1-3.3,0c-1.5-0.1-2.1,0.4-2.1,2s0.7,2.1,2.2,2c0.9,0,1.8,0.1,2.7,0
			c1.8-0.2,2.4,0.6,2.4,2.4c0,2-0.5,2.8-2.6,2.6c-2.9-0.2-5.9-0.1-8.8,0c-1.3,0-1.8-0.5-1.8-1.8C50,29.7,50,27.9,50,26.1"/>
		<path id="XMLID_17_" class="st1" d="M71.6,54.8c6.9,0,13.7,0,20.6,0c1.7,0,2.4,0.6,2.3,2.4c-0.4,4.3-0.7,8.5-1.1,12.8
			c-0.7,7.9-1.4,15.7-2.1,23.6c-0.2,2.1-0.4,4.1-0.5,6.2c-0.1,1.3-0.8,2.1-2.1,2.4c-5.1,1.4-10.3,2.8-15.4,4.2
			c-0.8,0.2-1.8,0.2-2.6,0c-5.4-1.4-10.8-3-16.2-4.4c-1.5-0.4-2.2-1.2-2.3-2.7c-0.3-3.5-0.6-7.1-1-10.6c-0.1-1.2,0.3-1.8,1.6-1.8
			c1.9,0,3.8,0,5.8,0c1.4,0,2,0.7,2.1,2c0,0.1,0,0.1,0,0.2c0.6,5.3,0.7,4.9,5.7,6.7c5.1,1.9,9.5-0.2,14.1-1.5
			c0.6-0.2,1.3-1.4,1.4-2.2c0.3-2.4,0.3-4.9,0.7-7.3c0.2-1.7-0.4-2-1.9-2.1c-8.9-0.1-17.7-0.3-26.6-0.4c-2.2,0-3-0.7-3.3-2.9
			c-0.7-6-0.8-6,5.2-6c8.5-0.1,17-0.3,25.5-0.4c1.6,0,2.4-0.5,2.4-2.3c0-1.5,0.2-3.1,0.5-4.6c0.3-1.6-0.4-2-1.9-2.1
			c-9.9,0-19.7-0.2-29.5-0.3c-3.5,0-3.5,0-3.7-3.6c0-0.1,0-0.3,0-0.4c-0.3-4.8-0.3-4.8,4.6-4.8c5.9,0,11.8,0,17.7,0
			C71.6,54.8,71.6,54.8,71.6,54.8"/>
	</g>
</g>
</svg>
