<?xml version="1.0" encoding="utf-8"?>
<!-- Generator: Adobe Illustrator 19.0.0, SVG Export Plug-In . SVG Version: 6.00 Build 0)  -->
<svg version="1.1" id="Layer_1" xmlns="http://www.w3.org/2000/svg" xmlns:xlink="http://www.w3.org/1999/xlink" x="0px" y="0px"
	 viewBox="0 0 41.7 162.5" style="enable-background:new 0 0 41.7 162.5;" xml:space="preserve">
<style type="text/css">
	.st0{fill:#7E4FFB;}
</style>
<g id="XMLID_2_">
	<g id="XMLID_37_">
		<g id="XMLID_24_">
			<path id="XMLID_28_" class="st0" d="M0.9,4.3c10.6,6.1,17.1,18.3,22,29.1c5,11,8.2,22.7,9.9,34.6c3.4,24.5-0.5,50-11.4,72.2
				c-1.7,3.5,6,2.9,7.3,0.4C40,117.5,44,91.4,40.5,65.9c-1.8-12.7-5.4-25.2-10.9-36.8C24.4,18.1,17.8,6.6,7,0.3
				C4.6-1.1-2.5,2.4,0.9,4.3L0.9,4.3z"/>
		</g>
	</g>
	<g id="XMLID_30_">
		<g id="XMLID_18_">
			<path id="XMLID_22_" class="st0" d="M39.3,142.7c-9.4-2.3-18.7-5.1-27.9-8.4c-3-1.1-9.1,3.3-4.6,4.9c9.2,3.2,18.5,6,27.9,8.4
				C37.8,148.3,43.9,143.8,39.3,142.7L39.3,142.7z"/>
		</g>
	</g>
	<g id="XMLID_3_">
		<path id="XMLID_16_" class="st0" d="M36.3,147.1c-4.3,5.2-9.9,9.5-16.1,12.2c-0.8,0.4-1.7,0.7-2.6,0.4c-1-0.4-1.5-1.4-1.8-2.4
			c-2.3-6.3-4.1-12.8-5.5-19.3"/>
		<g id="XMLID_11_">
			<path id="XMLID_15_" class="st0" d="M33.1,146.1c-2,2.4-4.2,4.5-6.7,6.4c-1.3,1-5.4,4.4-6.7,3.7c-1.3-0.7-2.4-7.2-2.8-8.7
				c-1-3.5-1.9-7.1-2.7-10.6c-0.7-3.4-8.5-1.4-7.7,2.1c1.2,5.7,2.7,11.3,4.6,16.8c1.2,3.5,2.2,6.7,6.5,6.8c8.1,0.1,17.1-8.6,22-14.3
				C42.6,144.5,35.3,143.5,33.1,146.1L33.1,146.1z"/>
		</g>
	</g>
</g>
</svg>
