<?xml version="1.0" encoding="utf-8"?>
<!-- Generator: Adobe Illustrator 19.0.0, SVG Export Plug-In . SVG Version: 6.00 Build 0)  -->
<svg version="1.1" id="Layer_1" xmlns="http://www.w3.org/2000/svg" xmlns:xlink="http://www.w3.org/1999/xlink" x="0px" y="0px"
	 viewBox="0 0 35.4 33.2" style="enable-background:new 0 0 35.4 33.2;" xml:space="preserve">
<style type="text/css">
	.st0{fill:#F58D86;}
	.st1{fill:#522F36;}
</style>
<g id="XMLID_2_">
	<path id="XMLID_17_" class="st0" d="M12.9,28.7c3,2.2,6.9,0.9,8.7-2.5c-0.3-0.1-0.5-0.2-0.7-0.3C18.1,26.2,15.7,28.4,12.9,28.7"/>
	<path id="XMLID_16_" class="st0" d="M26.6,18.1c1.3,2.3,3,4.3,5,6C32.1,20.9,29.8,18.2,26.6,18.1"/>
	<path id="XMLID_15_" class="st0" d="M21.5,24.6c0.2,0,0.5,0.1,0.7,0.1c0.7-1.7-0.8-3.4-1.6-4.8c-0.3-0.6-0.6-1.1-0.7-1.7
		c-0.7,1-0.9,2.2-0.7,3.5C19.5,23.2,20.4,23.9,21.5,24.6"/>
	<path id="XMLID_14_" class="st0" d="M5.7,11C5.7,11,5.7,11,5.7,11c2-1.1,0.7-3.6-0.5-4.8C4.5,5.4,3.6,4.8,2.8,4.1
		c-0.5-0.5-1-1-1.3-1.5C1.5,5.9,3,9,5.7,11"/>
	<path id="XMLID_13_" class="st0" d="M12.4,11.8c-0.7,0.8-1.2,1.8-1.4,2.9c-0.3,2,0.6,3.2,1.4,4.7C13.6,17.4,12.2,14.4,12.4,11.8"/>
	<path id="XMLID_12_" class="st0" d="M2,19.9c2.7,2.3,6.7,4.6,9.4,1.4c-0.3-0.2-0.6-0.5-0.9-0.7C7.8,19.5,4.9,19.3,2,19.9"/>
	<path id="XMLID_3_" class="st1" d="M5.3,13.1C5.3,13.1,5.4,13.1,5.3,13.1c0.8,2.6,2,4.8,3.6,6.7c-2.7-0.8-5.6-0.8-8.4,0
		c-0.5,0.1-0.7,0.7-0.3,1.1C3.3,24,9,27.2,12.5,23c2,1.4,4.2,2.4,6.6,3.1c-2.6,0.8-5,2.6-7.7,2c-0.6-0.1-1.1,0.6-0.7,1.1
		c3.6,4.1,10.8,3.2,12.3-2.4c2,0.2,4,0.1,6-0.2c-1.3,1.7-1.7,4.1-1.4,6c0.1,0.6,0.8,0.6,1.2,0.3c2.2-1.8,5-4.4,4.5-7.6
		c0.7-0.3,1.4-0.6,2-1c0.3-0.2,0.1-0.7-0.3-0.5c-0.6,0.3-1.3,0.5-2,0.7c0.4-4.1-3.3-7.5-7.5-6.9c-0.4,0.1-0.6,0.6-0.4,0.9
		c1.3,2.6,3.2,4.8,5.5,6.5c-0.1,0.1-0.2,0.1-0.3,0.2c-2.3,0.5-4.7,0.6-7,0.4c1.5-2.4-2.7-5.7-2.1-8.2c0.2-0.7-0.6-1.1-1.1-0.7
		c-1.7,1.4-2.7,3.7-2.1,6c0.1,0.6,0.4,1.3,0.8,1.8c-0.8-0.3-1.6-0.6-2.4-1.1c-1.3-0.7-2.4-1.4-3.4-2.3c2.7-2.7-0.7-7.4,1.5-10.3
		c0.4-0.6-0.3-1.2-0.9-0.9c-2,1.1-3.4,2.9-3.8,5.2c-0.1,0.9-0.1,1.9,0.2,2.9c-1.3-1.7-2.4-3.6-3.4-5.6c1.3-0.8,1.8-2.4,1.4-4
		c-1-3.5-5.8-4.1-6-8c0-0.6-0.9-0.8-1.1-0.2C-0.6,5.2,1.3,10.2,5.3,13.1 M26.6,19c3.1,0.1,5.5,2.8,5,6C29.6,23.3,27.9,21.3,26.6,19
		 M31.6,26.2c0.1,0.1,0.3,0.2,0.5,0.2c-0.5,1.9-1.8,3.3-3.3,4.6c0-0.9,0.2-1.8,0.7-2.7C30,27.5,30.8,26.9,31.6,26.2 M12.9,29.5
		c2.8-0.3,5.2-2.5,7.9-2.8c0.2,0.1,0.5,0.2,0.7,0.3C19.8,30.5,15.9,31.8,12.9,29.5 M19.9,19.1c0.1,0.6,0.4,1.1,0.7,1.7
		c0.8,1.4,2.3,3.1,1.6,4.8c-0.2,0-0.5-0.1-0.7-0.1c-1.1-0.7-1.9-1.5-2.3-2.9C18.9,21.3,19.2,20.1,19.9,19.1 M11,15.6
		c0.2-1.2,0.7-2.1,1.4-2.9c-0.2,2.6,1.2,5.6,0,7.7C11.6,18.8,10.8,17.5,11,15.6 M10.6,21.5c0.3,0.3,0.6,0.5,0.9,0.7
		c-2.7,3.2-6.8,0.9-9.4-1.4C4.9,20.2,7.8,20.4,10.6,21.5 M2.8,5C3.6,5.7,4.5,6.3,5.2,7c1.2,1.2,2.5,3.7,0.5,4.8c0,0,0,0-0.1,0
		C3,9.8,1.5,6.7,1.4,3.5C1.8,4,2.2,4.5,2.8,5"/>
</g>
</svg>
