<?xml version="1.0" encoding="utf-8"?>
<!-- Generator: Adobe Illustrator 19.0.0, SVG Export Plug-In . SVG Version: 6.00 Build 0)  -->
<svg version="1.1" id="Layer_1" xmlns="http://www.w3.org/2000/svg" xmlns:xlink="http://www.w3.org/1999/xlink" x="0px" y="0px"
	 viewBox="0 0 141.2 170.9" style="enable-background:new 0 0 141.2 170.9;" xml:space="preserve">
<style type="text/css">
	.st0{fill:none;stroke:#EFA492;stroke-miterlimit:10;}
	.st1{opacity:0.4;}
	.st2{clip-path:url(#XMLID_70_);fill:#C9C9C3;}
	.st3{clip-path:url(#XMLID_70_);fill:none;stroke:#C9C9C3;stroke-miterlimit:10;}
	.st4{fill:#FAA71A;}
	.st5{fill:#FFFFFF;}
	.st6{fill:#F8962D;}
</style>
<path id="XMLID_68_" class="st0" d="M-27.3,158.2c-0.3,0-0.6,0.1-0.7,0.5"/>
<g id="XMLID_64_" class="st1">
	<g id="XMLID_65_">
		<defs>
			<rect id="XMLID_66_" x="1" y="159.4" width="139.1" height="11.5"/>
		</defs>
		<clipPath id="XMLID_70_">
			<use xlink:href="#XMLID_66_"  style="overflow:visible;"/>
		</clipPath>
		<rect id="XMLID_69_" x="1.6" y="159.9" class="st2" width="137.8" height="10.5"/>
		<rect id="XMLID_67_" x="1.6" y="159.9" class="st3" width="137.8" height="10.5"/>
	</g>
</g>
<rect id="XMLID_63_" x="1.6" y="159.6" class="st4" width="96.5" height="10.5"/>
<circle id="XMLID_23_" class="st5" cx="70.6" cy="74.7" r="70.6"/>
<path id="XMLID_20_" class="st6" d="M70.1,127.8c-6.5-1.9-13-3.8-19.6-5.7c-3.1-0.9-6.3-1.8-9.7-2.7c-2.2-24.6-4.4-49.3-6.6-74.2
	h72.6c-0.2,2.9-0.3,5.8-0.6,8.7c-1.3,14.7-2.6,29.5-3.9,44.2c-0.6,6.4-1.3,12.7-1.8,19.1c-0.1,2-1.1,2.5-2.7,2.9
	c-8.5,2.3-17,4.7-25.5,7c-0.5,0.1-0.9,0.4-1.3,0.6H70.1z M58,69.5h35c0.3-3.4,0.6-6.3,0.8-9.3H47.5c0.8,9.4,1.7,18.5,2.5,27.9h31.4
	c-0.1,1.9-0.2,3.4-0.3,4.9c-0.2,2.1,0.3,4.7-0.8,6.1c-1.1,1.3-3.7,1.5-5.8,2c-1.8,0.4-3.8,0.9-5.6,0.7c-2.3-0.3-4.6-1.1-6.8-1.9
	c-0.7-0.2-1.4-1.1-1.5-1.8c-0.4-1.9-0.5-3.8-0.7-5.7h-9.4c0.4,4.6,0.7,9,1.2,13.4c0.1,0.6,1.1,1.4,1.9,1.6
	c5.2,1.5,10.5,2.9,15.8,4.3c0.9,0.2,2,0.2,2.9,0c5.3-1.4,10.5-2.9,15.8-4.2c1.6-0.4,1.8-1.5,1.9-2.8c0.4-5.4,1-10.9,1.4-16.3
	c0.3-3.2,0.5-6.4,0.8-10H58.7C58.5,75.5,58.3,72.8,58,69.5"/>
<path id="XMLID_19_" class="st6" d="M86.8,24.7v13.9h-4.4v-5.8c-0.2-0.1-0.3-0.1-0.5-0.2c-0.9,1.2-1.7,2.5-2.8,3.9
	c-1-1.4-1.9-2.6-3.3-4.5v6.5h-4.3V24.7h4.5c1,1.5,1.9,3,3.1,4.8c1-1.9,1.7-3.4,2.4-4.8H86.8z"/>
<path id="XMLID_18_" class="st6" d="M54.5,24.7v13.9H50c-0.1-1.5-0.1-2.9-0.2-4.6h-4.1c-0.1,1.5-0.2,3-0.3,4.6h-4.5V24.7h4.6
	c0.1,1.5,0.2,2.9,0.3,4.4h4.3v-4.4H54.5z"/>
<path id="XMLID_17_" class="st6" d="M69.1,24.7v4.4c-1.2,0.1-2.3,0.2-3.8,0.3v9.2h-4.7v-9.2c-1.5-0.1-2.6-0.2-4.1-0.3v-4.5H69.1z"/>
<polygon id="XMLID_16_" class="st6" points="93.9,24.7 93.9,34 100.4,34 100.4,38.6 89.4,38.6 89.4,24.7 "/>
<path id="XMLID_15_" class="st5" d="M58,69.5c0.3,3.3,0.5,6,0.7,8.9h33.4c-0.3,3.5-0.5,6.8-0.8,10c-0.5,5.4-1,10.9-1.4,16.3
	c-0.1,1.4-0.3,2.4-1.9,2.8c-5.3,1.4-10.5,2.9-15.8,4.2c-0.9,0.2-2,0.2-2.9,0c-5.3-1.4-10.6-2.8-15.8-4.3c-0.8-0.2-1.8-1-1.9-1.6
	c-0.5-4.4-0.8-8.8-1.2-13.4h9.4c0.2,1.9,0.3,3.8,0.7,5.7c0.1,0.7,0.9,1.6,1.5,1.8c2.2,0.8,4.5,1.6,6.8,1.9c1.8,0.2,3.8-0.3,5.6-0.7
	c2-0.5,4.7-0.6,5.8-2c1.1-1.4,0.6-4,0.8-6.1c0.1-1.5,0.2-3,0.3-4.9H50c-0.8-9.4-1.7-18.5-2.5-27.9h46.3c-0.3,2.9-0.5,5.9-0.8,9.3H58
	z"/>
</svg>
