<?xml version="1.0" encoding="utf-8"?>
<!-- Generator: Adobe Illustrator 19.0.0, SVG Export Plug-In . SVG Version: 6.00 Build 0)  -->
<svg version="1.1" id="Layer_1" xmlns="http://www.w3.org/2000/svg" xmlns:xlink="http://www.w3.org/1999/xlink" x="0px" y="0px"
	 viewBox="0 0 141.2 170.9" style="enable-background:new 0 0 141.2 170.9;" xml:space="preserve">
<style type="text/css">
	.st0{opacity:0.4;}
	.st1{clip-path:url(#XMLID_66_);fill:#C9C9C3;}
	.st2{clip-path:url(#XMLID_66_);fill:none;stroke:#C9C9C3;stroke-miterlimit:10;}
	.st3{fill:#ED4067;}
	.st4{fill:#FFFFFF;}
</style>
<g id="XMLID_22_" class="st0">
	<g id="XMLID_23_">
		<defs>
			<rect id="XMLID_63_" x="-0.6" y="159.4" width="142.3" height="11.5"/>
		</defs>
		<clipPath id="XMLID_66_">
			<use xlink:href="#XMLID_63_"  style="overflow:visible;"/>
		</clipPath>
		<rect id="XMLID_65_" x="0.1" y="159.9" class="st1" width="141" height="10.5"/>
		<rect id="XMLID_64_" x="0.1" y="159.9" class="st2" width="141" height="10.5"/>
	</g>
</g>
<rect id="XMLID_21_" x="0" y="159.6" class="st3" width="112.8" height="10.5"/>
<circle id="XMLID_20_" class="st3" cx="70.6" cy="70.8" r="70.6"/>
<g id="XMLID_15_">
	<path id="XMLID_17_" class="st4" d="M98.1,55.1c0,4.2,0,8.4,0,12.6c0,6.3-0.1,12.5-0.1,18.8c0,2.7,0.2,5.5,0.3,8.2
		c0,0.7-0.4,1.1-0.9,1.2c-2.2,0.7-4.3,1.5-6.5,2.1c-3.1,0.8-6.2,1.2-9.4,1.2c-5.1-0.1-9.8-1.3-13.9-4.5c-3.5-2.9-5.6-6.6-6.6-10.9
		c-1.3-5.6-1.3-11.2,0.7-16.6C65,57.8,73.6,52,83.4,52.3c0.6,0,1.3,0.1,1.9,0.3c0.8,0.1,0.9,0.1,0.9-0.7c0-3.3,0-6.7,0-10
		c0-0.5,0-1,0-1.6c0-0.6,0.3-0.9,0.9-0.9c3.4,0,6.7,0,10.1,0c0.5,0,0.8,0.3,0.8,0.8c0,0.3,0,0.6,0,1C98.1,45.7,98.1,50.4,98.1,55.1
		 M86.2,75.5L86.2,75.5c0-4.1,0-8.2,0-12.4c0-1-0.1-1.1-1-1.3c-1.6-0.4-3.2-0.5-4.8-0.1c-3.5,0.8-5.6,3.2-6.9,6.4
		c-1.3,3.2-1.3,6.5-1.1,9.8c0.1,2.2,0.6,4.4,1.6,6.4c2.4,5.2,7.2,6.3,11.7,5.3c0.5-0.1,0.7-0.4,0.7-0.9c0-0.6-0.1-1.2-0.1-1.8
		C86.2,83.1,86.2,79.3,86.2,75.5"/>
	<path id="XMLID_16_" class="st4" d="M54.8,68.8c0,9.2,0,18.4,0,27.6c0,0.3,0,0.6,0,0.9c0,0.8-0.3,1.1-1.1,1.1c-3.3,0-6.5,0-9.8,0
		c-0.8,0-1-0.3-1.1-1.1c0-0.3,0-0.5,0-0.8c0-18.5,0-36.9,0-55.4c0-1.8,0-1.8,1.8-1.8c2.8,0,5.7,0,8.5,0c1.5,0,1.6,0.1,1.6,1.6
		C54.8,50.2,54.8,59.5,54.8,68.8"/>
</g>
</svg>
