<?xml version="1.0" encoding="utf-8"?>
<!-- Generator: Adobe Illustrator 19.0.0, SVG Export Plug-In . SVG Version: 6.00 Build 0)  -->
<svg version="1.1" id="Layer_1" xmlns="http://www.w3.org/2000/svg" xmlns:xlink="http://www.w3.org/1999/xlink" x="0px" y="0px"
	 viewBox="0 0 73 94.8" style="enable-background:new 0 0 73 94.8;" xml:space="preserve">
<style type="text/css">
	.st0{fill:#EDDBBC;}
	.st1{clip-path:url(#XMLID_170_);fill:#F58D86;}
	.st2{clip-path:url(#XMLID_170_);}
	.st3{fill:#7E4FFB;}
</style>
<g id="XMLID_7_">
	<g id="XMLID_166_">
		<path id="XMLID_167_" class="st0" d="M12.3,47.2c0,0,15.5,46.8,10.3,47.2c0,0-3.5,1.1-4.1-0.4c-0.6-1.5-5.1-19.6-5.1-19.6
			s3.3,13.3,0.7,13.7c-2.5,0.5-3.3-5.6-3.2-10.9c0,0,0.3,11.6-0.8,12.2c-4.5,2.2-1.4-10-2.2-12.3c-0.5-1.5,0.3,10.5-2.4,10.1
			c-2.7-0.3-2.4-8.8-2.4-8.8L1.5,45.9L12.3,47.2z"/>
	</g>
	<g id="XMLID_8_">
		<defs>
			<path id="XMLID_9_" d="M67.3,0.1c0,0-69-3.5-65.7,47.1h9c0,0-4.3-43.7,62.3-40.1V0L67.3,0.1z"/>
		</defs>
		<clipPath id="XMLID_170_">
			<use xlink:href="#XMLID_9_"  style="overflow:visible;"/>
		</clipPath>
		<path id="XMLID_163_" class="st1" d="M67.3,0.1c0,0-69-3.5-65.7,47.1h9c0,0-4.3-43.7,62.3-40.1V0L67.3,0.1z"/>
		<g id="XMLID_156_" class="st2">
			<g id="XMLID_105_">
				<path id="XMLID_109_" class="st3" d="M1.1,36.2c2.6-0.3,5,0.6,7,2.2c0.8,0.7,4.3-0.8,3.6-1.3c-2.6-2-5.7-2.8-9-2.5
					c-0.7,0.1-2.2,0.3-2.6,0.9C-0.2,36.2,0.5,36.3,1.1,36.2L1.1,36.2z"/>
			</g>
		</g>
		<g id="XMLID_149_" class="st2">
			<g id="XMLID_56_">
				<path id="XMLID_103_" class="st3" d="M2.1,28.2c3.4-0.8,7,2,8.6,4.7c0.5,0.9,4.1-0.6,3.9-1c-2.6-4.7-7.8-5.9-12.7-4.7
					c-0.3,0.1-2,0.6-1.8,1C0.2,28.7,1.8,28.3,2.1,28.2L2.1,28.2z"/>
			</g>
		</g>
		<g id="XMLID_142_" class="st2">
			<g id="XMLID_49_">
				<path id="XMLID_54_" class="st3" d="M5.5,16.8c4.2,3.9,7,8.8,8.2,14.5c0.2,1.1,4.1,0.2,3.9-1c-1.2-5.8-4.1-10.9-8.4-14.9
					C8.2,14.5,4.6,15.9,5.5,16.8L5.5,16.8z"/>
			</g>
		</g>
		<g id="XMLID_135_" class="st2">
			<g id="XMLID_42_">
				<path id="XMLID_47_" class="st3" d="M12.2,14.2c3.2,4.1,5.3,8.7,6.5,13.8c0.3,1.4,4.2,0.4,3.9-1c-1.2-5.2-3.5-10-6.8-14.2
					C14.9,11.6,11.2,12.9,12.2,14.2L12.2,14.2z"/>
			</g>
		</g>
		<g id="XMLID_128_" class="st2">
			<g id="XMLID_35_">
				<path id="XMLID_39_" class="st3" d="M18.1,7.9c4.1,2.8,6.5,7.4,5.9,12.4c-0.2,1.5,3.7,0.7,3.9-0.5c0.5-5.3-1.7-10.4-6.2-13.4
					C20.6,5.7,17.1,7.2,18.1,7.9L18.1,7.9z"/>
			</g>
		</g>
		<g id="XMLID_121_" class="st2">
			<g id="XMLID_28_">
				<path id="XMLID_32_" class="st3" d="M26.8,2c3.4,1.8,7,3.7,9.4,6.8c2.8,3.7,2.6,7.7,2.4,12.1c-0.1,2,3.9,1.5,3.9-0.3
					c0.1-4.4,0.4-8.7-2.1-12.5c-2.5-3.9-6.7-6.2-10.7-8.3C28.3-1.1,24.9,0.9,26.8,2L26.8,2z"/>
			</g>
		</g>
		<g id="XMLID_114_" class="st2">
			<g id="XMLID_22_">
				<path id="XMLID_26_" class="st3" d="M44.2-1.8c2.8,4.5,4,9.4,3.8,14.6c-0.1,2,3.8,1.4,3.9-0.3c0.3-5.7-1.2-11.1-4.2-16
					C46.8-4.9,43.1-3.5,44.2-1.8L44.2-1.8z"/>
			</g>
		</g>
		<g id="XMLID_10_" class="st2">
			<g id="XMLID_16_">
				<path id="XMLID_20_" class="st3" d="M56-5.7c2.3,6,5.9,14.7,4.1,21.1c-0.2,0.7,3.5,0.3,3.8-0.7c1.8-6.6-1.7-15.3-4.1-21.5
					C59.5-7.6,55.7-6.4,56-5.7L56-5.7z"/>
			</g>
		</g>
	</g>
</g>
</svg>
