<?xml version="1.0" encoding="utf-8"?>
<!-- Generator: Adobe Illustrator 19.0.0, SVG Export Plug-In . SVG Version: 6.00 Build 0)  -->
<svg version="1.1" id="Layer_1" xmlns="http://www.w3.org/2000/svg" xmlns:xlink="http://www.w3.org/1999/xlink" x="0px" y="0px"
	 viewBox="0 0 62.7 109.6" style="enable-background:new 0 0 62.7 109.6;" xml:space="preserve">
<style type="text/css">
	.st0{fill:#EDDBBC;}
	.st1{clip-path:url(#XMLID_153_);fill:#F58D86;}
	.st2{clip-path:url(#XMLID_153_);}
	.st3{fill:#7E4FFB;}
</style>
<g id="XMLID_15_">
	<g id="XMLID_164_">
		<path id="XMLID_165_" class="st0" d="M40.9,76.3c0,0-44.2,22-40.7,26c0,0,1.7,3.3,3.2,2.7c1.5-0.6,17.5-10.2,17.5-10.2
			s-11.7,7-10.2,9.2c1.5,2.1,6.3-1.6,9.9-5.4c0,0-8.4,8-8.1,9.1c1.6,4.8,8.1-6.1,10.3-7.1c1.5-0.7-7.6,7.2-5.5,8.9
			c2.1,1.7,7.9-4.4,7.9-4.4L49.4,83L40.9,76.3z"/>
	</g>
	<g id="XMLID_16_">
		<defs>
			<path id="XMLID_17_" d="M35.6,4.1c0,0,51.1,46.4,12.9,79.8l-6.3-6.4c0,0,34.1-27.8-15.5-72.5l5-5L35.6,4.1z"/>
		</defs>
		<clipPath id="XMLID_153_">
			<use xlink:href="#XMLID_17_"  style="overflow:visible;"/>
		</clipPath>
		<path id="XMLID_161_" class="st1" d="M35.6,4.1c0,0,51.1,46.4,12.9,79.8l-6.3-6.4c0,0,34.1-27.8-15.5-72.5l5-5L35.6,4.1z"/>
		<g id="XMLID_154_" class="st2">
			<g id="XMLID_105_">
				<path id="XMLID_109_" class="st3" d="M58.4,74.6c-2-2.5-4.7-3.8-7.9-4.1c-0.9-0.1-2,0.2-2.7,0.7c-0.6,0.4-0.5,0.8,0.2,0.9
					c2.7,0.3,5,1.8,6.7,3.9C55.3,76.7,59,75.4,58.4,74.6L58.4,74.6z"/>
			</g>
		</g>
		<g id="XMLID_147_" class="st2">
			<g id="XMLID_99_">
				<path id="XMLID_103_" class="st3" d="M64,69.4c-2.8-4.5-8.1-5.6-12.9-4.2c-0.3,0.1-2,0.5-1.8,1c0.2,0.5,1.8,0.1,2.1,0
					c3.4-1,7.1,1.4,8.8,4.2C60.6,71.3,64.2,69.7,64,69.4L64,69.4z"/>
			</g>
		</g>
		<g id="XMLID_140_" class="st2">
			<g id="XMLID_93_">
				<path id="XMLID_97_" class="st3" d="M67.3,56.9c-6.5-0.3-12.8,1.5-18.2,5c-2.2,1.4,1.2,1.6,2.3,0.9c4.4-2.9,9.1-4.2,14.3-4
					C67,58.9,69.9,57,67.3,56.9L67.3,56.9z"/>
			</g>
		</g>
		<g id="XMLID_133_" class="st2">
			<g id="XMLID_87_">
				<path id="XMLID_91_" class="st3" d="M64,50.2c-5.8,0.7-11.2,2.6-16.1,5.7c-2.2,1.4,1.1,2,2.4,1.2c4.1-2.5,8.4-4.1,13.1-4.7
					C65.3,52.1,66.6,49.9,64,50.2L64,50.2z"/>
			</g>
		</g>
		<g id="XMLID_126_" class="st2">
			<g id="XMLID_81_">
				<path id="XMLID_85_" class="st3" d="M65.1,41.7c-6.1-1.2-12.5,1-16.4,5.8c-1,1.3,2.8,1,3.6,0c2.6-3.2,6.4-4.6,10.4-3.8
					C63.9,43.9,67.3,42.1,65.1,41.7L65.1,41.7z"/>
			</g>
		</g>
		<g id="XMLID_119_" class="st2">
			<g id="XMLID_76_">
				<path id="XMLID_80_" class="st3" d="M63.6,31c-4.7-1.4-9.7-2.8-14.6-1.7c-4.7,1.1-7.7,4.3-10.9,7.7c-1.7,1.8,2,2.5,3.2,1.2
					c2.6-2.7,4.8-5.6,8.8-6.2c3.8-0.6,7.6,0.6,11.2,1.7C63.1,34.1,65.9,31.7,63.6,31L63.6,31z"/>
			</g>
		</g>
		<g id="XMLID_112_" class="st2">
			<g id="XMLID_86_">
				<path id="XMLID_110_" class="st3" d="M52.1,16c-5.8,1.3-10.9,4.3-15,8.7c-1.6,1.8,2.1,2.4,3.2,1.1c3.4-3.7,7.6-6.1,12.4-7.2
					C55.3,18.1,54.5,15.5,52.1,16L52.1,16z"/>
			</g>
		</g>
		<g id="XMLID_18_" class="st2">
			<g id="XMLID_111_">
				<path id="XMLID_117_" class="st3" d="M45.5,6c-3.9,1.7-7.7,3.7-11.3,6c-2.8,1.8-5.9,3.7-7.5,6.7c-0.3,0.5,3.3,0.3,3.8-0.7
					c1.6-3,4.9-4.8,7.7-6.6c3.1-1.9,6.2-3.5,9.5-5C50.1,5.5,46.4,5.6,45.5,6L45.5,6z"/>
			</g>
		</g>
	</g>
</g>
</svg>
