<?xml version="1.0" encoding="utf-8"?>
<!-- Generator: Adobe Illustrator 19.0.0, SVG Export Plug-In . SVG Version: 6.00 Build 0)  -->
<svg version="1.1" id="Layer_1" xmlns="http://www.w3.org/2000/svg" xmlns:xlink="http://www.w3.org/1999/xlink" x="0px" y="0px"
	 viewBox="0 0 141.2 170.9" style="enable-background:new 0 0 141.2 170.9;" xml:space="preserve">
<style type="text/css">
	.st0{opacity:0.4;}
	.st1{clip-path:url(#XMLID_66_);fill:#C9C9C3;}
	.st2{clip-path:url(#XMLID_66_);fill:none;stroke:#C9C9C3;stroke-miterlimit:10;}
	.st3{fill:#447BBE;}
	.st4{fill:#FFFFFF;}
</style>
<g id="XMLID_22_" class="st0">
	<g id="XMLID_23_">
		<defs>
			<rect id="XMLID_63_" x="-0.6" y="159" width="142.3" height="11.5"/>
		</defs>
		<clipPath id="XMLID_66_">
			<use xlink:href="#XMLID_63_"  style="overflow:visible;"/>
		</clipPath>
		<rect id="XMLID_65_" x="0.1" y="159.5" class="st1" width="141" height="10.5"/>
		<rect id="XMLID_64_" x="0.1" y="159.5" class="st2" width="141" height="10.5"/>
	</g>
</g>
<rect id="XMLID_21_" x="0.1" y="159.4" class="st3" width="128" height="10.5"/>
<circle id="XMLID_20_" class="st3" cx="70.6" cy="71" r="70.6"/>
<g id="XMLID_15_">
	<path id="XMLID_17_" class="st4" d="M45.9,80.7c0,5.1-0.1,9.9,0,14.6c0.1,2.1-0.5,3.1-2.8,2.9c-1.7-0.2-3.5-0.2-5.3,0
		c-2.2,0.2-2.8-0.7-2.8-2.9c0-15.2,0-30.4,0-45.7c0-6.2,0-6.2,6.3-6.4c4-0.1,7.9-0.3,11.9,0C64.4,44.1,71,50.9,71,61.4
		c0,10.6-7.2,18.4-18.1,19.3C50.8,80.9,48.6,80.7,45.9,80.7 M46.2,51.8v20c4.5,0.4,9,0.8,11.8-3.4c2.7-3.9,2.7-8.4,0.5-12.5
		C56,51,51.2,51.6,46.2,51.8"/>
	<path id="XMLID_16_" class="st4" d="M100.3,67.1c-2.4-0.9-4.3-1.8-6.2-2.2c-2.1-0.4-4.4-0.6-6.5-0.4c-1,0.1-2.3,1.5-2.6,2.5
		c-0.2,0.8,0.7,2.3,1.5,3c1.5,1.1,3.2,1.7,4.9,2.6c1.9,1,3.9,2,5.7,3.2c4,2.6,5.8,6.3,5.3,11c-0.4,4.9-2.9,8.4-7.4,10.4
		c-6.4,2.8-12.7,2.1-18.8-1c-0.7-0.4-1.6-1.3-1.7-2.1c-0.2-2.6-0.1-5.2-0.1-8.4c1.3,0.6,2.1,1,2.9,1.3c3.4,1,6.7,2,10.1,2.7
		c1.7,0.3,3.6-0.3,4.1-2.4c0.5-2-0.8-3.1-2.4-3.9c-2.6-1.3-5.3-2.5-7.8-3.9c-5.8-3.4-8-7.8-6.8-13.5c1.1-5.4,5.4-9.2,11.5-10.1
		c4.2-0.7,8.3-0.2,12.1,1.7c0.9,0.5,1.7,1.9,1.9,3C100.5,62.4,100.3,64.6,100.3,67.1"/>
</g>
</svg>
