<?xml version="1.0" encoding="utf-8"?>
<!-- Generator: Adobe Illustrator 19.0.0, SVG Export Plug-In . SVG Version: 6.00 Build 0)  -->
<svg version="1.1" id="Layer_1" xmlns="http://www.w3.org/2000/svg" xmlns:xlink="http://www.w3.org/1999/xlink" x="0px" y="0px"
	 viewBox="0 0 141.2 170.9" style="enable-background:new 0 0 141.2 170.9;" xml:space="preserve">
<style type="text/css">
	.st0{fill:none;stroke:#EFA492;stroke-miterlimit:10;}
	.st1{opacity:0.4;}
	.st2{clip-path:url(#XMLID_71_);fill:#C9C9C3;}
	.st3{clip-path:url(#XMLID_71_);fill:none;stroke:#C9C9C3;stroke-miterlimit:10;}
	.st4{fill:#FAD41A;}
	.st5{fill:#FFFFFF;}
</style>
<path id="XMLID_68_" class="st0" d="M-27.3,158.2c-0.3,0-0.6,0.1-0.7,0.5"/>
<g id="XMLID_65_" class="st1">
	<g id="XMLID_66_">
		<defs>
			<rect id="XMLID_67_" x="1.1" y="156.5" width="139.1" height="11.5"/>
		</defs>
		<clipPath id="XMLID_71_">
			<use xlink:href="#XMLID_67_"  style="overflow:visible;"/>
		</clipPath>
		<rect id="XMLID_70_" x="1.7" y="157" class="st2" width="137.8" height="10.5"/>
		<rect id="XMLID_69_" x="1.7" y="157" class="st3" width="137.8" height="10.5"/>
	</g>
</g>
<rect id="XMLID_64_" x="1.7" y="156.7" class="st4" width="96.5" height="10.5"/>
<circle id="XMLID_63_" class="st4" cx="70.6" cy="71.8" r="70.6"/>
<path id="XMLID_15_" class="st5" d="M25.9,54.4c4.1-4.7,8-9.1,11.9-13.5c0.5-0.6,1.3-1.1,2-1.4c4.3-1.9,8.7-3.8,13.1-5.6
	c1-0.4,2.1-0.6,3.1-0.6c9.7,0,19.5,0,29.2,0c1.2,0,2.4,0.4,3.6,0.7c9.8,3,17.8,8.5,23.7,17.1c0.7,1.1,1.7,2,2.8,3.2
	C100.4,74.2,85.6,94,70.6,114C55.6,94.1,40.8,74.3,25.9,54.4 M49.7,71.7c7,12.5,13.9,24.6,20.9,37.2c7.1-12.7,13.9-24.8,20.9-37.2
	H49.7z M48.6,66.7h44c-3-5.3-5.8-10.3-8.7-15.2c-0.3-0.5-1.3-0.8-1.9-0.8c-7.6-0.1-15.1-0.1-22.7,0c-0.7,0-1.8,0.3-2.1,0.9
	C54.3,56.5,51.6,61.4,48.6,66.7 M45.3,41.3c3.5,1.6,6.2,3.2,9.2,4.2c2.3,0.8,4.7,1.5,7.1,1.6c5.6,0.2,11.3,0,17,0.1
	c3.3,0.1,6.2-0.5,9.1-2c2.5-1.4,5.1-2.5,8.1-3.9c-6.8-3-12.7-6.3-20-5.4c-3.6,0.4-7.4,0.5-11,0C57.7,35,52,38.5,45.3,41.3
	 M42.9,64.3c3.3-4.8,6.3-9.2,9.6-13.9c-4.3-2.1-8.4-4-12.4-5.9c-0.4-0.2-1.4,0-1.7,0.4c-2.5,3.3-5,6.6-7.5,10.1
	C34.9,58.1,38.7,61.1,42.9,64.3 M88.6,50.4c3.3,4.8,6.4,9.3,9.6,13.9c4.1-3.2,8-6.2,12-9.3c-2.6-3.5-4.9-6.7-7.3-9.9
	c-0.3-0.4-1.5-0.7-2-0.5C96.9,46.4,92.9,48.3,88.6,50.4 M36.3,64.8c7.8,10.8,15.6,21.5,23.4,32.3c-0.1-1-0.5-1.8-0.9-2.6
	c-4.4-7.1-8.9-14-13-21.2C43.5,69.4,39.9,67.2,36.3,64.8 M81.4,96c0.1,0.1,0.3,0.2,0.4,0.4l22.8-31.5c-0.2-0.1-0.3-0.3-0.5-0.4
	c-2.3,1.9-5.2,3.4-6.8,5.8C91.8,78.7,86.7,87.4,81.4,96"/>
</svg>
