<?xml version="1.0" encoding="utf-8"?>
<!-- Generator: Adobe Illustrator 19.0.0, SVG Export Plug-In . SVG Version: 6.00 Build 0)  -->
<svg version="1.1" id="Layer_1" xmlns="http://www.w3.org/2000/svg" xmlns:xlink="http://www.w3.org/1999/xlink" x="0px" y="0px"
	 viewBox="0 0 912.1 57.1" style="enable-background:new 0 0 912.1 57.1;" xml:space="preserve">
<style type="text/css">
	.st0{fill:#B2B8BC;}
</style>
<g>
	<g id="XMLID_11_">
		<path id="XMLID_15_" class="st0" d="M2.2,18.9C19,6.4,38.9,8.7,55.9,19.1c6.9,4.2,13.6,9,21.3,11.6c6.8,2.4,13.9,2.7,20.9,1.7
			c17.1-2.4,32.8-12.7,50.3-12.5c16.3,0.2,30.3,10.1,44.5,16.8c13.8,6.4,27.5,8.8,42.3,4.4c15.2-4.5,28.6-14.4,44.2-17.6
			c19.7-4,36.8,8.7,54.8,14.2c13.5,4.2,29.4,4.8,41.2-4.3c7.8-6,13-13.8,23.3-15.7c8.9-1.6,18.1,0.2,26.5,3
			c16.9,5.6,31.4,16.8,48.5,22c31.5,9.7,60.5-8.1,90.1-15.9c17.3-4.6,33.4-3.4,49.3,4.8c13.4,6.9,25.3,16.3,39.2,22.1
			c12.3,5.1,25.3,5.8,38,1.9c12.3-3.8,23.1-11.1,33.5-18.4c11.3-7.9,23-17,36.7-20.1c16-3.7,30.8,4.1,44.9,10.6
			c12.5,5.8,25.6,10.8,39.4,7.2c15.3-4,24.1-17,36.1-26.1c8.1-6.2,18.8-10.6,28.2-4.5c1.5,0.9,6.4-1.4,5.4-2
			c-12.5-8-28.9-1.3-39.4,7.2c-13.5,10.8-24.2,27.3-43.8,23.7c-15.7-2.9-29.1-12.8-44.3-17.3c-12.5-3.7-25.2-2.4-37.2,2.6
			c-12.7,5.3-23.7,13.8-35,21.5c-12,8.2-25.3,16.6-40.4,15.9C658.7,55,644.7,45.2,631.3,37c-12.9-7.9-26.3-15-41.7-15.5
			c-33.4-1.1-61.9,22.7-95,21.7C460.1,42.3,434,8,398,15.8c-7,1.5-13.3,4.7-18.6,9.5c-3.6,3.2-6.7,7-10.8,9.5
			c-5.1,3.1-11,3.7-16.8,3.2c-18.7-1.6-34.3-13.8-52.6-17c-15.5-2.7-29.8,2.8-43.6,9.3c-8,3.8-16,7.9-24.7,9.8
			c-9,2-17.8,0.4-26.3-2.9c-14.7-5.7-27.7-15.6-43.3-18.8c-16-3.3-31.1,2.5-46,7.5c-9.2,3.1-18.9,5.8-28.6,3.7
			c-9-1.9-16.7-7.4-24.4-12.2C48.4,9.1,33.9,5.3,17.9,9.1c-7.3,1.8-14.2,4.9-20.2,9.4C-4.6,20.3,1.1,19.8,2.2,18.9L2.2,18.9z"/>
	</g>
</g>
</svg>
